<svg width="7" height="12" viewBox="0 0 7 12" fill="none" xmlns="http://www.w3.org/2000/svg">
<path opacity="0.1" d="M6.7079 6.7179C6.84859 6.57738 6.92772 6.38674 6.9279 6.1879V5.8079C6.9256 5.60948 6.84678 5.41962 6.7079 5.2779L1.5679 0.147899C1.47402 0.0532428 1.34622 0 1.2129 0C1.07958 0 0.951783 0.0532428 0.857899 0.147899L0.147899 0.857899C0.0538349 0.950063 0.000827789 1.07621 0.000827789 1.2079C0.000827789 1.33959 0.0538349 1.46574 0.147899 1.5579L4.5979 5.9979L0.147899 10.4379C0.0532427 10.5318 0 10.6596 0 10.7929C0 10.9262 0.0532427 11.054 0.147899 11.1479L0.857899 11.8479C0.951783 11.9426 1.07958 11.9958 1.2129 11.9958C1.34622 11.9958 1.47402 11.9426 1.5679 11.8479L6.7079 6.7179Z" fill="white"/>
</svg>
