<svg width="7" height="12" viewBox="0 0 7 12" fill="none" xmlns="http://www.w3.org/2000/svg">
<path opacity="0.1" d="M0.2921 5.2821C0.151408 5.42262 0.0722752 5.61325 0.0721001 5.8121L0.0721001 6.1921C0.0744041 6.39051 0.153216 6.58038 0.2921 6.7221L5.4321 11.8521C5.52598 11.9468 5.65378 12 5.7871 12C5.92042 12 6.04822 11.9468 6.1421 11.8521L6.8521 11.1421C6.94616 11.0499 6.99917 10.9238 6.99917 10.7921C6.99917 10.6604 6.94616 10.5343 6.8521 10.4421L2.4021 6.0021L6.8521 1.5621C6.94676 1.46822 7 1.34042 7 1.2071C7 1.07378 6.94676 0.945983 6.8521 0.8521L6.1421 0.1521C6.04822 0.0574439 5.92042 0.00420119 5.7871 0.00420118C5.65378 0.00420117 5.52598 0.0574438 5.4321 0.1521L0.2921 5.2821Z" fill="white"/>
</svg>
