<svg width="11" height="6" viewBox="0 0 11 6" fill="none" xmlns="http://www.w3.org/2000/svg">
<path fill-rule="evenodd" clip-rule="evenodd" d="M10.956 0.680104C10.9197 0.592192 10.8624 0.525537 10.6616 0.337793C10.3536 0.0498577 10.28 0.0106412 10.0468 0.00990121C9.92142 0.00950123 9.85147 0.0196604 9.78881 0.0473381C9.7305 0.0730759 9.02657 0.713481 7.6016 2.03707L5.50038 3.98884L3.39925 2.03491C1.76487 0.514978 1.27665 0.0719955 1.20142 0.0405981C1.13676 0.0136204 1.05834 0.000161584 0.964966 1.59299e-06C0.744553 -0.000398383 0.635657 0.0580767 0.339687 0.335673C0.131462 0.530937 0.0829248 0.588312 0.0441255 0.685063C-0.0144062 0.830911 -0.0146857 0.946342 0.0431585 1.09351C0.08673 1.20436 0.195217 1.30847 2.60648 3.55316C5.392 6.14622 5.21711 5.99845 5.50049 5.99845C5.78386 5.99845 5.60898 6.14622 8.39458 3.55316C10.8072 1.30735 10.9144 1.20442 10.9579 1.09351C11.0146 0.948882 11.0141 0.820752 10.956 0.680104Z" fill="white"/>
</svg>
