<svg width="21" height="21" viewBox="0 0 21 21" fill="none" xmlns="http://www.w3.org/2000/svg">
<path d="M10.5 21C16.299 21 21 16.299 21 10.5C21 4.70101 16.299 0 10.5 0C4.70101 0 0 4.70101 0 10.5C0 16.299 4.70101 21 10.5 21Z" fill="#F0F0F0"/>
<path d="M2.17065 4.10738C1.34586 5.18047 0.723943 6.41729 0.361816 7.76092H5.8242L2.17065 4.10738Z" fill="#0052B4"/>
<path d="M20.6383 7.76093C20.2762 6.41734 19.6542 5.18051 18.8295 4.10742L15.176 7.76093H20.6383Z" fill="#0052B4"/>
<path d="M0.361816 13.2392C0.723984 14.5828 1.3459 15.8196 2.17065 16.8926L5.82407 13.2392H0.361816Z" fill="#0052B4"/>
<path d="M16.8928 2.17058C15.8197 1.3458 14.5829 0.723878 13.2393 0.36171V5.82405L16.8928 2.17058Z" fill="#0052B4"/>
<path d="M4.10742 18.8294C5.18051 19.6542 6.41734 20.2761 7.76093 20.6383V15.176L4.10742 18.8294Z" fill="#0052B4"/>
<path d="M7.76089 0.36171C6.4173 0.723878 5.18047 1.3458 4.10742 2.17054L7.76089 5.82401V0.36171Z" fill="#0052B4"/>
<path d="M13.2393 20.6383C14.5828 20.2761 15.8197 19.6542 16.8927 18.8294L13.2393 15.176V20.6383Z" fill="#0052B4"/>
<path d="M15.176 13.2392L18.8295 16.8927C19.6542 15.8196 20.2762 14.5828 20.6383 13.2392H15.176Z" fill="#0052B4"/>
<path d="M20.9111 9.13045H11.8696H11.8696V0.0888809C11.4213 0.0305156 10.9642 0 10.5 0C10.0357 0 9.57875 0.0305156 9.13045 0.0888809V9.13037V9.13041H0.0888809C0.0305156 9.57875 0 10.0358 0 10.5C0 10.9643 0.0305156 11.4213 0.0888809 11.8696H9.13037H9.13041V20.9111C9.57875 20.9695 10.0357 21 10.5 21C10.9642 21 11.4213 20.9695 11.8696 20.9111V11.8696V11.8696H20.9111C20.9695 11.4213 21 10.9643 21 10.5C21 10.0358 20.9695 9.57875 20.9111 9.13045Z" fill="#D80027"/>
<path d="M13.2393 13.2392L17.9247 17.9247C18.1402 17.7092 18.3458 17.484 18.5419 17.2506L14.5305 13.2392H13.2393V13.2392Z" fill="#D80027"/>
<path d="M7.7607 13.2392H7.76061L3.0752 17.9246C3.29061 18.1401 3.51583 18.3457 3.74929 18.5418L7.7607 14.5303V13.2392Z" fill="#D80027"/>
<path d="M7.76067 7.76093V7.76085L3.07521 3.07535C2.85972 3.29076 2.65414 3.51598 2.45801 3.74944L6.46946 7.76089H7.76067V7.76093Z" fill="#D80027"/>
<path d="M13.2393 7.76093L17.9248 3.07539C17.7093 2.8599 17.4841 2.65432 17.2507 2.45823L13.2393 6.46968V7.76093V7.76093Z" fill="#D80027"/>
</svg>
