<svg width="35" height="35" viewBox="0 0 35 35" fill="none" xmlns="http://www.w3.org/2000/svg">
<path fill-rule="evenodd" clip-rule="evenodd" d="M16.0514 0.0376941C8.31497 0.712385 1.92922 6.35571 0.353277 13.9106C0.073006 15.2546 -0.000492698 15.9978 2.48041e-06 17.4857C0.000709879 19.5297 0.24745 21.13 0.839401 22.9291C2.80738 28.9103 7.84583 33.4074 13.9782 34.6563C16.1633 35.1013 18.7299 35.1149 20.8617 34.693C27.506 33.3778 32.811 28.3698 34.4831 21.834C34.8561 20.3763 34.9963 19.2156 34.9999 17.5564C35.0063 14.6224 34.4519 12.2385 33.1665 9.67417C30.1599 3.67575 24.0344 -0.0752729 17.3703 0.00114591C16.8006 0.00772033 16.2071 0.0241211 16.0514 0.0376941ZM24.1865 6.47794C26.3797 7.0929 27.9342 8.64623 28.5526 10.8406L28.712 11.4061L28.7129 17.4504C28.7139 23.4432 28.7125 23.4998 28.5586 24.1023C28.0207 26.2079 26.5711 27.7372 24.4341 28.4536L23.8328 28.6552H17.5016H11.1704L10.5691 28.4525C9.80992 28.1965 9.30377 27.9417 8.76523 27.5442C7.57687 26.6671 6.80885 25.528 6.44461 24.1023C6.29068 23.4998 6.28934 23.4435 6.2904 17.4504L6.29146 11.4061L6.4507 10.8406C7.11982 8.46391 8.9031 6.82525 11.3007 6.3842C11.6979 6.31111 13.0801 6.29407 17.7138 6.3051C23.5989 6.31924 23.6226 6.31987 24.1865 6.47794ZM11.9207 8.18694C11.1352 8.37965 10.2922 8.8383 9.68924 9.40094C9.06842 9.98034 8.66549 10.5783 8.35784 11.3767L8.12857 11.9717L8.1082 17.2736C8.08542 23.226 8.07899 23.1349 8.59086 24.1511C9.26218 25.4838 10.4 26.4007 11.9132 26.8285C12.3404 26.9493 12.7366 26.9585 17.5016 26.9585C22.2666 26.9585 22.6628 26.9493 23.09 26.8285C24.6163 26.397 25.7646 25.4656 26.4161 24.1308C26.9278 23.0825 26.9166 23.2421 26.8944 17.2888L26.8746 11.9717L26.649 11.3868C26.1669 10.1368 25.253 9.12248 24.1189 8.57893C22.9917 8.03862 23.1051 8.0476 17.4523 8.05347C12.864 8.05821 12.3998 8.06945 11.9207 8.18694ZM24.5563 10.0652C25.241 10.3511 25.6426 10.9341 25.6461 11.6473C25.6536 13.2137 23.7993 13.992 22.6932 12.8867C21.8367 12.0307 22.1345 10.5476 23.2614 10.0572C23.5567 9.92873 24.2396 9.93291 24.5563 10.0652ZM18.1808 11.4421C19.3572 11.5896 20.3596 11.9831 21.2623 12.6518C22.4092 13.5015 23.2795 14.8578 23.5929 16.2839C23.7378 16.9433 23.7019 18.2927 23.5214 18.9703C22.9524 21.1062 21.3891 22.7035 19.2204 23.3649C18.6597 23.5359 18.4896 23.5548 17.5016 23.5548C16.5136 23.5548 16.3435 23.5359 15.7828 23.3649C13.6141 22.7035 12.0508 21.1062 11.4818 18.9703C11.3013 18.2927 11.2654 16.9433 11.4103 16.2839C11.7096 14.9221 12.5695 13.5425 13.6248 12.7314C14.4663 12.0846 15.6694 11.5774 16.6527 11.4551C17.3956 11.3626 17.5366 11.3614 18.1808 11.4421ZM16.5439 13.2422C14.9218 13.5951 13.5816 14.9056 13.18 16.5314C13.0473 17.069 13.0655 18.0962 13.2171 18.6168C13.6555 20.1223 14.9129 21.3499 16.4023 21.7266C16.6342 21.7853 17.1289 21.8333 17.5016 21.8333C17.8743 21.8333 18.369 21.7853 18.6009 21.7266C20.0903 21.3499 21.3477 20.1223 21.7861 18.6168C21.9377 18.0962 21.9559 17.069 21.8232 16.5314C21.2475 14.2006 18.8902 12.7318 16.5439 13.2422Z" fill="#003D98"/>
</svg>
