<svg width="35" height="35" viewBox="0 0 35 35" fill="none" xmlns="http://www.w3.org/2000/svg">
<path fill-rule="evenodd" clip-rule="evenodd" d="M17.3517 34.7034C26.9348 34.7034 34.7034 26.9348 34.7034 17.3517C34.7034 7.76862 26.9348 0 17.3517 0C7.76862 0 0 7.76862 0 17.3517C0 26.9348 7.76862 34.7034 17.3517 34.7034ZM9.32409 11.9051C9.36784 12.0194 9.38425 12.1423 9.372 12.264V21.172C9.39871 21.3304 9.38803 21.4928 9.3408 21.6462C9.29358 21.7997 9.21111 21.9401 9.1 22.056L7 24.624V24.962H12.957V24.624L10.856 22.056C10.63 21.822 10.523 21.495 10.566 21.172V13.468L15.796 24.962H16.402L20.894 13.468V22.63C20.894 22.874 20.894 22.921 20.735 23.081L19.119 24.661V25H26.963V24.66L25.403 23.118C25.3353 23.0658 25.2831 22.9961 25.2519 22.9165C25.2208 22.8369 25.2118 22.7503 25.226 22.666V11.332C25.2118 11.2477 25.2208 11.1611 25.2519 11.0815C25.2831 11.0019 25.3353 10.9322 25.403 10.88L27 9.339V9H21.472L17.532 18.905L13.05 9H7.252V9.339L9.12 11.606C9.21043 11.6884 9.28033 11.7908 9.32409 11.9051Z" fill="#003D98"/>
</svg>
