<svg width="55" height="55" viewBox="0 0 55 55" fill="none" xmlns="http://www.w3.org/2000/svg">
<circle cx="27.5" cy="27.5" r="27.5" fill="#003D98"/>
<path d="M26.1919 33.3316L25.8668 25.631H27.614C28.2912 25.631 28.8736 25.5107 29.3612 25.2701C29.8758 25.0294 30.2686 24.6952 30.5395 24.2674C30.8375 23.8128 30.9865 23.2781 30.9865 22.6631C30.9865 22.0749 30.851 21.5668 30.5801 21.139C30.3093 20.6845 29.93 20.3503 29.4424 20.1364C28.9549 19.8957 28.386 19.7754 27.7359 19.7754C26.7336 19.7754 25.8126 20.0695 24.9729 20.6578C24.1603 21.2193 23.4966 21.9947 22.9819 22.984L19 19.2941C19.8126 17.7166 20.991 16.4465 22.535 15.484C24.079 14.4947 25.9074 14 28.0203 14C29.781 14 31.3386 14.361 32.693 15.0829C34.0474 15.8048 35.1038 16.7941 35.8623 18.0508C36.6208 19.2807 37 20.6711 37 22.2219C37 23.7995 36.6749 25.1497 36.0248 26.2727C35.3747 27.3957 34.4944 28.3182 33.3837 29.0401C32.2731 29.7353 31.0135 30.2299 29.605 30.5241L31.4334 28.1578L31.0677 33.3316H26.1919ZM28.6298 44C27.5463 44 26.6524 43.639 25.9481 42.9171C25.2709 42.1952 24.9323 41.3262 24.9323 40.3102C24.9323 39.2406 25.2709 38.3583 25.9481 37.6631C26.6524 36.9412 27.5463 36.5802 28.6298 36.5802C29.6862 36.5802 30.553 36.9412 31.2302 37.6631C31.9345 38.3583 32.2867 39.2406 32.2867 40.3102C32.2867 41.3262 31.9345 42.1952 31.2302 42.9171C30.553 43.639 29.6862 44 28.6298 44Z" fill="#101317"/>
</svg>
