<svg width="19" height="10" viewBox="0 0 19 10" fill="none" xmlns="http://www.w3.org/2000/svg">
<path fill-rule="evenodd" clip-rule="evenodd" d="M18.924 1.13351C18.8613 0.986986 18.7623 0.875896 18.4154 0.562989C17.8835 0.0830962 17.7564 0.0177353 17.3535 0.016502C17.137 0.0158354 17.0162 0.0327673 16.908 0.0788968C16.8072 0.121793 15.5913 1.18914 13.13 3.39512L9.50066 6.64807L5.87144 3.39152C3.04842 0.858297 2.20512 0.119992 2.07517 0.0676635C1.96349 0.0227007 1.82804 0.00026928 1.66676 2.62839e-06C1.28605 -0.000663998 1.09795 0.0967945 0.586733 0.559455C0.22707 0.884894 0.143234 0.980519 0.0762157 1.14177C-0.0248833 1.38485 -0.0253659 1.57724 0.0745467 1.82252C0.149805 2.00727 0.337192 2.18078 4.5021 5.92193C9.31346 10.2437 9.01138 9.99742 9.50084 9.99742C9.99031 9.99742 9.68823 10.2437 14.4997 5.92193C18.6669 2.17892 18.8522 2.00737 18.9273 1.82252C19.0253 1.58147 19.0243 1.36792 18.924 1.13351Z" fill="white"/>
</svg>
