<svg width="35" height="35" viewBox="0 0 35 35" fill="none" xmlns="http://www.w3.org/2000/svg">
<path fill-rule="evenodd" clip-rule="evenodd" d="M17.3517 34.7034C26.9348 34.7034 34.7034 26.9348 34.7034 17.3517C34.7034 7.76862 26.9348 0 17.3517 0C7.76862 0 0 7.76862 0 17.3517C0 26.9348 7.76862 34.7034 17.3517 34.7034ZM27.7514 9.18307C27.9424 6.99438 25.6597 7.89568 25.6597 7.89568H25.6585C23.9683 8.60418 22.225 9.3242 20.4629 10.052C15.0194 12.3003 9.39633 14.6228 4.60556 16.9086C2.00559 17.8741 3.52738 18.8397 3.52738 18.8397L7.64972 20.1277C9.55166 20.7071 10.5664 20.0628 10.5664 20.0628L19.4444 13.9471C22.6149 11.7584 21.854 13.561 21.0931 14.3332L14.4355 20.7714C13.4202 21.6727 13.9278 22.4449 14.372 22.8316C15.6293 23.9545 18.7211 26.0092 20.0733 26.9078C20.4261 27.1423 20.6605 27.298 20.713 27.338C21.0303 27.5956 22.7424 28.7539 23.8835 28.4969C25.0251 28.2393 25.152 26.7586 25.152 26.7586L26.6738 16.651C26.9015 14.9018 27.1625 13.2202 27.3712 11.8751C27.5696 10.5966 27.7208 9.62228 27.7514 9.18307Z" fill="#003D98"/>
</svg>
