<svg width="25" height="21" viewBox="0 0 25 21" fill="none" xmlns="http://www.w3.org/2000/svg">
<path d="M22.5749 0.183838C22.5749 0.183838 24.8576 -0.717455 24.6666 1.47123C24.6038 2.37252 24.0332 5.52735 23.589 8.93917L22.0673 19.0467C22.0673 19.0467 21.9403 20.5275 20.7987 20.7851C19.6577 21.0421 17.9455 19.8838 17.6282 19.6262C17.3744 19.4328 12.8725 16.5356 11.2872 15.1197C10.843 14.733 10.3354 13.9608 11.3507 13.0595L18.0084 6.62139C18.7693 5.84919 19.5302 4.04661 16.3597 6.23529L7.48161 12.351C7.48161 12.351 6.46688 12.9953 4.56494 12.4158L0.442607 11.1279C0.442607 11.1279 -1.07918 10.1623 1.52078 9.19677C7.86235 6.17104 15.6622 3.08106 22.5737 0.183838H22.5749Z" fill="#003D98"/>
</svg>
