<svg width="29" height="25" viewBox="0 0 29 25" fill="none" xmlns="http://www.w3.org/2000/svg">
<path d="M26.5761 1.10057C26.5761 1.10057 29.2071 0.0617155 28.987 2.58445C28.9146 3.6233 28.257 7.25963 27.745 11.1922L25.9909 22.8424C25.9909 22.8424 25.8446 24.5492 24.5288 24.8461C23.2136 25.1423 21.2401 23.8072 20.8744 23.5103C20.5818 23.2874 15.3928 19.948 13.5656 18.316C13.0536 17.8703 12.4685 16.9803 13.6388 15.9414L21.3126 8.52065C22.1896 7.6306 23.0666 5.55289 19.4122 8.07563L9.17915 15.1247C9.17915 15.1247 8.00955 15.8674 5.81733 15.1995L1.06582 13.7149C1.06582 13.7149 -0.688225 12.602 2.30856 11.4891C9.618 8.00157 18.6083 4.43998 26.5747 1.10057H26.5761Z" fill="#003D98"/>
</svg>
