<svg width="28" height="24" viewBox="0 0 28 24" fill="none" xmlns="http://www.w3.org/2000/svg">
<path d="M27.669 3.52463C26.6637 3.97008 25.5839 4.27105 24.4486 4.40709C25.62 3.70617 26.4963 2.60301 26.9142 1.30344C25.8136 1.95714 24.6091 2.41728 23.353 2.66384C22.5083 1.76196 21.3895 1.16418 20.1703 0.963305C18.9511 0.762431 17.6996 0.969706 16.6103 1.55295C15.5209 2.13619 14.6546 3.06277 14.1458 4.18883C13.637 5.31489 13.5142 6.57742 13.7965 7.78042C11.5665 7.66845 9.38493 7.08884 7.39343 6.0792C5.40194 5.06955 3.64499 3.65244 2.23662 1.91983C1.75506 2.75053 1.47816 3.71365 1.47816 4.73937C1.47762 5.66275 1.70502 6.572 2.14016 7.38642C2.5753 8.20085 3.20475 8.89528 3.97264 9.40809C3.08209 9.37976 2.21118 9.13912 1.43241 8.70622V8.77845C1.43232 10.0735 1.8803 11.3288 2.70034 12.3312C3.52038 13.3335 4.66196 14.0214 5.93139 14.2779C5.10525 14.5015 4.23911 14.5344 3.39838 14.3742C3.75654 15.4885 4.4542 16.463 5.39369 17.1611C6.33318 17.8593 7.46746 18.2461 8.63776 18.2676C6.65112 19.8271 4.19764 20.6731 1.67199 20.6694C1.2246 20.6695 0.777583 20.6434 0.333252 20.5911C2.89693 22.2395 5.88123 23.1143 8.9291 23.1109C19.2465 23.1109 24.8868 14.5656 24.8868 7.15439C24.8868 6.91361 24.8808 6.67042 24.8699 6.42964C25.967 5.63624 26.9141 4.65377 27.6666 3.52824L27.669 3.52463Z" fill="#003D98"/>
</svg>
