<svg width="35" height="35" viewBox="0 0 35 35" fill="none" xmlns="http://www.w3.org/2000/svg">
<path fill-rule="evenodd" clip-rule="evenodd" d="M17.5 35C27.165 35 35 27.165 35 17.5C35 7.83502 27.165 0 17.5 0C7.83502 0 0 7.83502 0 17.5C0 27.165 7.83502 35 17.5 35ZM27.3236 10.8565C28.3169 10.7374 29.2618 10.4741 30.1414 10.0843L30.1393 10.0875C29.4809 11.0723 28.6522 11.932 27.6923 12.6262C27.7017 12.8369 27.707 13.0497 27.707 13.2603C27.707 19.7451 22.7718 27.2223 13.744 27.2223C11.0771 27.2252 8.46587 26.4598 6.22266 25.0175C6.61145 25.0632 7.00258 25.0861 7.39405 25.0859C9.60399 25.0892 11.7508 24.349 13.4891 22.9844C12.4651 22.9656 11.4726 22.6271 10.6505 22.0162C9.82848 21.4054 9.21803 20.5527 8.90464 19.5777C9.64028 19.7178 10.3982 19.689 11.121 19.4934C10.0103 19.2689 9.01139 18.6671 8.29386 17.79C7.57633 16.9129 7.18434 15.8146 7.18442 14.6814V14.6182C7.86585 14.997 8.62789 15.2075 9.40712 15.2323C8.73522 14.7836 8.18445 14.176 7.8037 13.4634C7.42295 12.7507 7.22398 11.9552 7.22445 11.1472C7.22445 10.2497 7.46674 9.40695 7.8881 8.6801C9.12043 10.1961 10.6578 11.4361 12.4003 12.3195C14.1429 13.203 16.0517 13.7101 18.003 13.8081C17.756 12.7555 17.8634 11.6508 18.3086 10.6655C18.7538 9.68017 19.5119 8.86941 20.465 8.35907C21.4182 7.84874 22.5132 7.66737 23.5801 7.84314C24.6469 8.0189 25.6259 8.54196 26.365 9.33111C27.464 9.11536 28.518 8.71274 29.481 8.14075C29.1154 9.27787 28.3485 10.2431 27.3236 10.8565Z" fill="#003D98"/>
</svg>
