<svg width="25" height="25" viewBox="0 0 25 25" fill="none" xmlns="http://www.w3.org/2000/svg">
<path d="M6.29042 8.34473C6.54691 8.34473 6.7957 8.38192 7.02911 8.45503C7.9142 7.46325 8.89489 6.56113 9.95694 5.76174C9.84778 5.30506 9.86911 4.8269 10.0185 4.38176C8.82055 3.52317 7.52419 2.81102 6.15704 2.26047C4.8684 3.05754 3.74438 4.09411 2.84576 5.31415C3.51135 6.49406 4.30262 7.59318 5.2029 8.59354C5.53121 8.43451 5.89927 8.34473 6.29042 8.34473ZM3.77938 10.8546C3.77938 10.5019 3.85377 10.1659 3.98329 9.86323C3.1761 8.97607 2.4487 8.01945 1.80954 7.0045C0.981713 8.6478 0.55123 10.4625 0.552741 12.3026C0.550531 14.4272 1.12449 16.5126 2.21351 18.3368C2.586 16.2507 3.28725 14.2368 4.29108 12.3706C3.95887 11.935 3.77907 11.4024 3.77938 10.8546ZM12.3974 2.66831C13.0605 2.66831 13.6607 2.9261 14.1108 3.34677C15.4352 2.77506 16.8176 2.34849 18.2339 2.07451C16.4454 1.0421 14.4163 0.499733 12.3513 0.502144C10.9338 0.501259 9.52783 0.756743 8.20127 1.25626C9.2226 1.76074 10.1995 2.35066 11.1214 3.01972C11.4959 2.79657 11.9306 2.66831 12.3974 2.66831ZM16.1499 14.4918C16.3042 14.1676 16.5269 13.8805 16.8027 13.6505C16.0684 11.3954 14.9048 9.30365 13.3759 7.49057C12.9804 7.65796 12.5485 7.72098 12.1217 7.6736C11.6948 7.62622 11.2872 7.47002 10.938 7.21996C10.0285 7.91088 9.18525 8.68502 8.41928 9.53234C8.61215 9.83771 8.73585 10.1816 8.78171 10.5398C8.82757 10.8981 8.79448 11.2621 8.68475 11.6062C10.9294 13.1078 13.4789 14.0933 16.1499 14.4918ZM19.406 17.8815C19.4997 19.1993 19.465 20.5232 19.3021 21.8342C21.3277 20.3566 22.831 18.2729 23.5945 15.8846C22.6746 16.1076 21.7398 16.264 20.7975 16.3528C20.6873 16.6917 20.5063 17.0034 20.2664 17.267C20.0264 17.5306 19.7332 17.7401 19.406 17.8815ZM15.5625 16.1796C12.7092 15.7043 9.99248 14.6175 7.59852 12.9939C7.05321 13.3292 6.40019 13.443 5.77359 13.3119C4.62133 15.4935 3.92371 17.8862 3.72296 20.3452C4.85353 21.5611 6.2279 22.5247 7.75626 23.1732C9.69361 20.1922 12.3874 17.7789 15.5625 16.1796ZM20.2717 3.55582C18.4201 3.73691 16.6069 4.19877 14.8944 4.92554C14.9413 5.39102 14.8564 5.86032 14.6494 6.27988C16.3483 8.27234 17.6417 10.5774 18.457 13.0657C18.943 13.0744 19.416 13.2239 19.8189 13.4958C20.2218 13.7678 20.5372 14.1508 20.7269 14.5983C21.8632 14.4829 22.9687 14.2648 24.0331 13.9519C24.3053 12.0435 24.1047 10.0975 23.4488 8.28475C22.7929 6.47205 21.7019 4.84818 20.2717 3.55582ZM16.8257 17.5199C13.8681 18.9048 11.3342 21.0549 9.48628 23.7478C10.4232 23.9823 11.3854 24.1008 12.3513 24.1004C14.0714 24.102 15.7709 23.7259 17.3297 22.9988C17.5734 21.8086 17.7017 20.5787 17.7017 19.3192C17.7017 18.8639 17.6811 18.4125 17.6465 17.9662C17.347 17.8711 17.0684 17.7196 16.8257 17.5199Z" fill="#003D98"/>
</svg>
