<svg width="35" height="35" viewBox="0 0 35 35" fill="none" xmlns="http://www.w3.org/2000/svg">
<path fill-rule="evenodd" clip-rule="evenodd" d="M17.3517 34.7034C26.9348 34.7034 34.7034 26.9348 34.7034 17.3517C34.7034 7.76862 26.9348 0 17.3517 0C7.76862 0 0 7.76862 0 17.3517C0 26.9348 7.76862 34.7034 17.3517 34.7034ZM20.1413 9.00005C21.7128 9.27623 23.2214 9.75423 24.6148 10.4128C24.6357 10.4128 24.6462 10.4234 24.6567 10.434C27.1396 14.1412 28.3654 18.3157 27.9044 23.1276C27.9044 23.1488 27.8939 23.1701 27.873 23.1807C25.9872 24.5828 24.1748 25.4326 22.3728 25.9956C22.3414 26.0062 22.31 25.9956 22.2785 25.985C21.8699 25.4008 21.4928 24.7847 21.1575 24.1367C21.1471 24.1048 21.1575 24.0517 21.1994 24.0411C21.7966 23.8074 22.3728 23.5419 22.9176 23.2126C22.97 23.1913 22.97 23.1276 22.9281 23.0957C22.8704 23.0479 22.8128 23.0028 22.7552 22.9577C22.6976 22.9125 22.64 22.8674 22.5823 22.8196C22.5614 22.7983 22.53 22.7983 22.509 22.8089C18.947 24.4766 15.0602 24.4766 11.4563 22.8089C11.4354 22.7983 11.4039 22.7983 11.383 22.8196C11.3254 22.862 11.2678 22.9072 11.2101 22.9523C11.1525 22.9975 11.0949 23.0426 11.0373 23.0851C11.0058 23.117 11.0058 23.1807 11.0477 23.202C11.603 23.5206 12.1687 23.7968 12.7659 24.0305C12.8078 24.0411 12.8287 24.0836 12.8078 24.1261C12.483 24.774 12.1059 25.3901 11.6868 25.9744C11.6763 25.9956 11.6449 26.0062 11.6135 25.9956C9.82199 25.4326 8.00956 24.5828 6.12379 23.1807C6.10284 23.1701 6.09236 23.1488 6.09236 23.1276C5.70474 18.9637 6.49047 14.7573 9.34007 10.434C9.35055 10.4234 9.36103 10.4128 9.3715 10.4128C10.7754 9.75423 12.2735 9.27623 13.845 9.00005C13.8764 9.00005 13.9078 9.01067 13.9183 9.03192C14.1173 9.38245 14.3374 9.82858 14.484 10.1897C16.1508 9.9348 17.8459 9.9348 19.5127 10.1897C19.6594 9.8392 19.8794 9.38245 20.068 9.03192C20.0772 9.02149 20.0885 9.01324 20.1012 9.00773C20.1138 9.00222 20.1275 8.9996 20.1413 9.00005ZM11.3725 18.337C11.3725 19.5798 12.2735 20.5889 13.3526 20.5889C14.4526 20.5889 15.3326 19.5798 15.3326 18.337C15.3431 17.1048 14.4631 16.0851 13.3526 16.0851C12.2525 16.0851 11.3725 17.0942 11.3725 18.337ZM18.6746 18.337C18.6746 19.5798 19.5756 20.5889 20.6547 20.5889C21.7652 20.5889 22.6347 19.5798 22.6347 18.337C22.6452 17.1048 21.7652 16.0851 20.6547 16.0851C19.5546 16.0851 18.6746 17.0942 18.6746 18.337Z" fill="#003D98"/>
</svg>
