<svg width="35" height="35" viewBox="0 0 35 35" fill="none" xmlns="http://www.w3.org/2000/svg">
<path fill-rule="evenodd" clip-rule="evenodd" d="M17.3517 34.7034C26.9348 34.7034 34.7034 26.9348 34.7034 17.3517C34.7034 7.76862 26.9348 0 17.3517 0C7.76862 0 0 7.76862 0 17.3517C0 26.9348 7.76862 34.7034 17.3517 34.7034ZM27.9097 11.007C28.2742 11.3753 28.5367 11.8335 28.671 12.3359C29.1745 14.1976 29.1509 18.079 29.1509 18.079C29.1509 18.079 29.1474 21.9391 28.6592 23.7996C28.5229 24.3015 28.259 24.7589 27.8936 25.1265C27.5282 25.4941 27.0739 25.7591 26.5758 25.8955C24.7293 26.3829 17.3424 26.3745 17.3424 26.3745C17.3424 26.3745 9.97549 26.3662 8.11018 25.855C7.09853 25.5804 6.30265 24.7756 6.03146 23.7568C5.54804 21.9141 5.55275 18.0339 5.55275 18.0339C5.55275 18.0339 5.55747 14.1726 6.04443 12.3109C6.18272 11.8082 6.44686 11.3498 6.8115 10.9796C7.17614 10.6095 7.62903 10.34 8.12669 10.1972C9.97431 9.70861 17.3601 9.71693 17.3601 9.71693C17.3601 9.71693 24.747 9.72525 26.5935 10.2364C27.0914 10.373 27.5453 10.6387 27.9097 11.007ZM15.0031 14.4781L14.9972 21.611L21.1426 18.0505L15.0031 14.4781Z" fill="#003D98"/>
</svg>
