<svg width="25" height="18" viewBox="0 0 25 18" fill="none" xmlns="http://www.w3.org/2000/svg">
<path d="M23.671 3.31067C23.5367 2.80828 23.2742 2.35012 22.9097 1.98178C22.5452 1.61344 22.0914 1.34778 21.5934 1.21123C19.747 0.700042 12.3601 0.69172 12.3601 0.69172C12.3601 0.69172 4.97429 0.683399 3.12667 1.172C2.62901 1.31483 2.17612 1.58425 1.81148 1.9544C1.44685 2.32454 1.1827 2.78298 1.04441 3.28571C0.557453 5.14738 0.552736 9.00864 0.552736 9.00864C0.552736 9.00864 0.54802 12.8889 1.03144 14.7316C1.30263 15.7504 2.09851 16.5552 3.11016 16.8298C4.97547 17.341 12.3424 17.3493 12.3424 17.3493C12.3424 17.3493 19.7293 17.3577 21.5758 16.8702C22.0739 16.7339 22.5282 16.4689 22.8936 16.1013C23.259 15.7337 23.5229 15.2763 23.6592 14.7744C24.1473 12.9139 24.1509 9.05382 24.1509 9.05382C24.1509 9.05382 24.1745 5.17235 23.671 3.31067ZM9.99718 12.5858L10.0031 5.45291L16.1426 9.02528L9.99718 12.5858Z" fill="#003D98"/>
</svg>
